<svg width="21" height="20" viewBox="0 0 21 20" fill="none" xmlns="http://www.w3.org/2000/svg">
<path d="M20.4801 12.419C19.1132 17.7762 13.5599 21.0365 8.07635 19.7006C2.59512 18.365 -0.74166 12.9387 0.625848 7.58197C1.99215 2.22419 7.54543 -1.03634 13.0273 0.299234C18.5104 1.63481 21.847 7.0617 20.4799 12.4191L20.48 12.419H20.4801Z" fill="#F3BA2F"/>
<path fill-rule="evenodd" clip-rule="evenodd" d="M10.5538 6.34692L7.90358 8.93636L7.90364 8.93625L6.36168 7.42959L10.5538 3.33359L14.7472 7.43081L13.2052 8.93748L10.5538 6.34692ZM5.27303 8.49335L3.73096 10.0003L5.27292 11.5067L6.81499 9.99997L5.27303 8.49335ZM7.90377 11.0645L10.554 13.6538L13.2054 11.0633L14.7482 12.5691L14.7474 12.5699L10.554 16.6671L6.36186 12.5711L6.35968 12.569L7.90377 11.0645ZM15.8347 8.49413L14.2926 10.0009L15.8346 11.5075L17.3766 10.0007L15.8347 8.49413Z" fill="white"/>
<path d="M12.1178 9.99916H12.1184L10.5538 8.47031L9.39734 9.59996L9.26448 9.72983L8.99046 9.99761L8.98828 9.99969L8.99046 10.0019L10.5538 11.5296L12.1185 10.0008L12.1193 9.99991L12.1179 9.99916" fill="white"/>
</svg>
