<svg width="22" height="20" viewBox="0 0 22 20" fill="none" xmlns="http://www.w3.org/2000/svg">
<g clip-path="url(#clip0_1543_500)">
<path d="M10.9257 19.9997C16.5774 19.9997 21.159 15.5226 21.159 9.99983C21.159 4.47708 16.5774 0 10.9257 0C5.27398 0 0.692383 4.47708 0.692383 9.99983C0.692383 15.5226 5.27398 19.9997 10.9257 19.9997Z" fill="url(#paint0_linear_1543_500)"/>
<path fill-rule="evenodd" clip-rule="evenodd" d="M10.5553 3.6075C9.96114 3.67441 9.4087 3.93933 8.991 4.35766C8.67738 4.66109 8.38032 4.97262 8.06255 5.27909C7.9035 5.43856 7.74272 5.59365 7.58194 5.75109C7.42116 5.90854 7.24382 6.07577 7.07683 6.24097C6.90984 6.40618 6.77114 6.55115 6.61657 6.70455C6.37506 6.94056 6.13355 7.17656 5.89203 7.41493C5.70676 7.60204 5.52562 7.79523 5.34242 7.98201C5.23442 8.09361 5.11815 8.19711 5.01637 8.31444C4.59633 8.81522 4.36676 9.44271 4.3667 10.0902C4.3667 10.1283 4.3667 10.1674 4.36911 10.2052C4.3777 10.577 4.47757 10.9413 4.66031 11.2675C4.76434 11.4647 4.88481 11.6531 5.02051 11.8309C5.11022 11.9543 5.17543 11.9523 5.29342 11.8569C5.31597 11.8385 5.33707 11.8186 5.35656 11.7972C5.47283 11.6775 5.58669 11.5582 5.70503 11.4388C5.87202 11.2675 6.04315 11.0966 6.21014 10.9233C6.37713 10.75 6.55827 10.5592 6.73354 10.3802C6.81703 10.2925 6.90605 10.2116 6.99023 10.1253C7.1693 9.94018 7.34457 9.74935 7.52363 9.56628C7.7027 9.3832 7.88418 9.21193 8.05945 9.03291C8.23472 8.85388 8.45036 8.63473 8.64771 8.43582C8.84506 8.2369 9.01239 8.06967 9.1956 7.8866C9.43401 7.64554 9.6662 7.39874 9.9022 7.15802C10.0488 7.01068 10.1996 6.86942 10.3462 6.72411C10.5498 6.52519 10.7392 6.32627 10.939 6.12735C11.1388 5.92844 11.2871 5.79492 11.4582 5.62365C11.8408 5.24605 12.2227 4.86619 12.604 4.48409C12.6287 4.46037 12.6517 4.43514 12.6731 4.40857C12.7669 4.29292 12.7748 4.2673 12.6589 4.18571C12.4819 4.04943 12.2924 3.92946 12.0927 3.82732C11.7399 3.66607 11.3551 3.58251 10.9655 3.58255H10.9462C10.8161 3.58258 10.6861 3.59057 10.557 3.60649L10.555 3.60446L10.5553 3.6075ZM13.9258 6.05723H13.9013C13.7342 6.05728 13.5691 6.09294 13.4175 6.1617C13.2659 6.23047 13.1315 6.33069 13.0236 6.4554C13.0043 6.47629 12.9839 6.49621 12.9625 6.51508L12.3394 7.11217C12.1359 7.31142 11.9157 7.52821 11.7018 7.73724C11.5248 7.9102 11.3475 8.07945 11.1726 8.25274C10.9976 8.42604 10.8099 8.61889 10.6205 8.79994C10.4311 8.98099 10.2296 9.1708 10.034 9.35725L9.33947 10.0417L8.04841 11.3036C7.47797 11.8633 6.90835 12.4218 6.33952 12.9792C6.22981 13.0848 6.22774 13.0986 6.33952 13.2119C6.61243 13.4816 6.88948 13.7493 7.15411 14.021C7.31784 14.1906 7.53392 14.3031 7.76929 14.3413C7.99134 14.385 8.22074 14.3775 8.43931 14.3194C8.60307 14.2798 8.75421 14.2012 8.87921 14.0905L9.55545 13.4523C9.71416 13.3032 9.87529 13.1559 10.0319 13.0045C10.3455 12.7011 10.655 12.3956 10.9687 12.0942C11.2233 11.8495 11.4841 11.6067 11.7425 11.3619L12.8028 10.3522C13.1326 10.0356 13.4645 9.71732 13.7985 9.40074C13.8208 9.3684 13.8517 9.34265 13.8879 9.32628C13.924 9.30991 13.9641 9.30355 14.0038 9.3079C14.0434 9.31224 14.081 9.32712 14.1126 9.35092C14.1442 9.37472 14.1685 9.40653 14.1829 9.44288C14.3526 9.68514 14.4434 9.97191 14.4433 10.2655C14.4433 10.3157 14.4406 10.3659 14.4354 10.4159C14.408 10.7119 14.2831 10.9912 14.0794 11.2119C13.8347 11.4688 13.5742 11.7116 13.3203 11.9584C13.1392 12.1333 12.9539 12.3046 12.7724 12.4816C12.5382 12.7085 12.308 12.9395 12.0738 13.1664C12.0393 13.2041 12.0068 13.2439 11.9702 13.2796L11.7401 13.5126C11.5676 13.6812 11.392 13.845 11.2226 14.014C11.0532 14.1829 10.8586 14.3804 10.6775 14.5649C10.6612 14.5827 10.643 14.5945 10.6267 14.6104C10.4228 14.7955 10.2355 14.9812 10.0419 15.1677C9.9505 15.2553 9.86287 15.3447 9.77316 15.4323C9.61859 15.5857 9.45954 15.7358 9.31083 15.8922C9.2194 15.9856 9.2194 16.0433 9.32739 16.1171C9.5047 16.2501 9.69344 16.3679 9.8915 16.4691C10.3842 16.6868 10.9302 16.7627 11.4655 16.6879C11.9968 16.6263 12.4952 16.4044 12.8915 16.053C13.1927 15.7944 13.4618 15.5038 13.7426 15.2253C13.9462 15.0261 14.1501 14.8133 14.3678 14.6083L14.9564 14.0291C15.1358 13.8521 15.3128 13.6748 15.4943 13.4998C15.6758 13.3248 15.9014 13.1158 16.105 12.9186C16.3085 12.7213 16.5124 12.5207 16.716 12.3097C16.8783 12.1482 17.0282 11.9752 17.1645 11.7921C17.4186 11.417 17.5773 10.9879 17.6272 10.5406C17.6548 10.3185 17.6548 10.0939 17.6272 9.87173C17.5666 9.47644 17.42 9.09843 17.1973 8.76319C17.0371 8.52598 16.8455 8.31057 16.6273 8.1226C16.0632 7.57541 15.5008 7.02417 14.9491 6.46484C14.8289 6.33399 14.6818 6.22933 14.5175 6.15765C14.3531 6.08598 14.1751 6.04889 13.9952 6.0488H13.9876L13.9265 6.05689L13.9258 6.05723Z" fill="white"/>
</g>
<defs>
<linearGradient id="paint0_linear_1543_500" x1="2.0868" y1="4.19583" x2="18.2669" y2="15.5249" gradientUnits="userSpaceOnUse">
<stop stop-color="#FF3B3B"/>
<stop offset="1" stop-color="#FF9914"/>
</linearGradient>
<clipPath id="clip0_1543_500">
<rect width="20.4669" height="20" fill="white" transform="translate(0.692383)"/>
</clipPath>
</defs>
</svg>
