<svg width="40" height="39" viewBox="0 0 40 39" fill="none" xmlns="http://www.w3.org/2000/svg">
<path d="M14.687 1.12598C14.687 1.12598 -0.218715 4.2598 1.03481 20.9774C2.28834 37.695 23.0458 42.5705 32.7264 32.5403C32.7264 32.5403 15.9405 41.2467 7.23412 28.2213C-1.47224 15.196 7.65196 3.56274 14.687 1.12598Z" fill="#6BA43A"/>
<path d="M31.553 3.58203C39.7517 9.33811 41.3195 21.2427 35.1671 29.09C29.1494 37.0387 17.2311 38.5559 9.58105 32.091C17.3209 37.7534 28.6964 36.2441 34.4759 28.5569C40.4409 20.9518 39.0097 9.67004 31.553 3.58203Z" fill="#C89211"/>
<path d="M2.26097 23.4978C-0.34176 15.6564 3.63946 6.4229 10.7662 2.39872C13.1229 1.03194 15.7803 0.204067 18.4397 0.0888672C15.917 0.9226 13.5779 2.05898 11.5121 3.55462C5.15463 8.04936 1.79236 15.7502 2.26097 23.4978Z" fill="#4A8B2C"/>
<path d="M35.583 15.9146C35.7295 22.231 31.6838 28.3327 25.8281 30.7167C16.6493 34.6628 5.78731 28.8716 3.95973 19.0445C1.93105 9.29936 9.73924 -0.178249 19.6972 0.0287195C16.5848 0.0677703 13.4901 1.01475 10.9186 2.77594C2.7394 8.2489 1.57568 20.1067 8.58724 27.0245C18.5999 36.8965 35.3448 29.9357 35.583 15.9146Z" fill="#6BA43A"/>
<path d="M36.8697 13.05C38.752 18.9545 37.1353 25.8118 32.8807 30.3319C20.7379 43.1034 -0.388581 33.1806 1.65182 15.6918C2.50313 8.5943 7.93899 2.36375 14.8881 0.688477C8.15572 2.70154 3.05374 8.7876 2.32935 15.7738C1.23593 25.638 8.56575 34.5006 18.471 35.2308C30.5884 36.088 39.8493 24.7847 36.8697 13.05Z" fill="#4A8B2C"/>
<path d="M38.998 17.5682C39.367 23.7695 36.0614 29.8887 30.7993 33.1534C26.2362 36.0529 20.3552 36.6855 15.263 34.8833C4.34828 31.0407 -0.275331 18.0563 5.87125 8.22532C9.1359 2.96323 15.2551 -0.344365 21.4584 0.0285696C15.4875 0.323403 9.90715 3.66224 6.95296 8.87551C1.24179 18.853 6.91782 31.6226 18.1957 33.9617C28.6984 36.1525 38.4825 28.2076 38.998 17.5682Z" fill="#00783F"/>
<path d="M35.4171 9.60598C38.4337 15.6745 37.3637 23.3147 32.8026 28.3308C22.5635 39.6184 3.88554 32.9876 3.05376 17.7715C2.7355 11.8885 5.70726 6.00551 10.6511 2.8053C11.3481 2.34645 12.0803 1.95009 12.8301 1.58887C11.3403 2.32497 9.94817 3.26024 8.72978 4.39271C3.09867 9.55326 1.6577 18.1425 5.32651 24.8436C10.7702 35.0143 24.8812 36.7189 32.6035 28.1512C37.1451 23.2601 38.2951 15.6296 35.4171 9.60598Z" fill="#6BA43A"/>
<path d="M31.553 3.58203C37.3267 7.89128 39.9782 15.6136 38.0706 22.5665C33.8004 38.1673 12.9434 40.8657 4.84232 26.868C1.7124 21.4556 1.69678 14.4577 4.83451 9.05109C5.27383 8.28179 5.77563 7.55349 6.31062 6.85058C5.25235 8.26421 4.38347 9.81843 3.77428 11.4761C0.921623 19.0852 3.6786 27.8892 10.3817 32.4854C20.4294 39.5048 34.6205 34.3306 37.8129 22.4982C39.7576 15.6682 37.1841 7.91276 31.553 3.58203Z" fill="#4A8B2C"/>
<path d="M38.6251 18.9546C38.9571 30.8768 27.6031 40.2431 15.9406 37.8434C-0.85907 34.4382 -5.20542 12.5757 9.08715 3.07461C12.2307 1.03031 15.9777 -0.0572579 19.6972 0.0286537C17.8423 0.0774672 15.9952 0.368395 14.2282 0.930726C4.08475 4.15436 -1.41945 15.1999 2.19275 25.2183C4.33077 31.2673 9.76859 35.971 16.0694 37.1952C27.6363 39.5304 38.4162 30.7245 38.6251 18.9546Z" fill="#C89211"/>
<path d="M34.7883 9.11944C38.0452 15.0942 37.27 22.8145 32.8885 28.0239C26.164 36.3163 13.0429 36.2851 6.39453 27.9126C0.868853 21.2174 1.41556 10.988 7.66563 4.95468C8.86254 3.7773 10.2391 2.79322 11.7191 2.00635C10.2469 2.80494 8.88011 3.80073 7.69492 4.98592C1.54443 11.0388 0.986005 21.1725 6.50778 27.8208C13.1171 36.0742 26.1112 36.1543 32.7987 27.9517C37.1587 22.8067 37.9729 15.063 34.7883 9.11944Z" fill="#C89211"/>
<path d="M31.9455 27.3349C32.4621 27.3349 32.8808 26.9162 32.8808 26.3996C32.8808 25.8831 32.4621 25.4644 31.9455 25.4644C31.429 25.4644 31.0103 25.8831 31.0103 26.3996C31.0103 26.9162 31.429 27.3349 31.9455 27.3349Z" fill="#6BA43A"/>
<path d="M0.935265 9.87151C1.4518 9.87151 1.87053 9.45277 1.87053 8.93624C1.87053 8.41971 1.4518 8.00098 0.935265 8.00098C0.418732 8.00098 0 8.41971 0 8.93624C0 9.45277 0.418732 9.87151 0.935265 9.87151Z" fill="#C89211"/>
<path d="M13.3554 38.0228C13.9183 38.0228 14.3746 37.5665 14.3746 37.0036C14.3746 36.4407 13.9183 35.9844 13.3554 35.9844C12.7925 35.9844 12.3362 36.4407 12.3362 37.0036C12.3362 37.5665 12.7925 38.0228 13.3554 38.0228Z" fill="#00783F"/>
<path d="M29.4871 9.74267C29.0322 9.74267 28.6651 10.1097 28.6651 10.5647C28.6651 10.592 28.6671 10.6213 28.669 10.6467C28.5128 10.9279 28.3859 11.2227 28.2902 11.5273C28.7178 11.455 29.1747 11.3984 29.6628 11.3652C30.0299 11.2871 30.3052 10.9571 30.3052 10.5647C30.3052 10.1097 29.9382 9.74267 29.4871 9.74267ZM28.7569 8.91284C28.7569 8.4579 28.3898 8.09082 27.9349 8.09082C27.4819 8.09082 27.1148 8.4579 27.1148 8.91284C27.1148 9.02218 27.1363 9.12762 27.1753 9.22329C26.7009 10.4143 26.035 11.5253 25.1935 12.5075C25.709 12.2595 26.3143 12.0154 27.025 11.8143C27.4545 11.1485 27.8177 10.4436 28.1184 9.71338C28.4835 9.62942 28.7569 9.30335 28.7569 8.91284ZM26.1756 6.88025C26.1756 6.42726 25.8085 6.06018 25.3536 6.06018C24.9006 6.06018 24.5335 6.42726 24.5335 6.88025C24.5335 6.97202 24.5492 7.05988 24.5765 7.14189C24.4906 7.26295 24.389 7.37229 24.2719 7.46992C24.061 7.64369 23.8189 7.76475 23.5592 7.82333C23.6451 7.51092 23.7154 7.19266 23.7818 6.87244C24.0688 6.74553 24.2699 6.45655 24.2699 6.12267C24.2699 5.66968 23.9029 5.3026 23.4479 5.3026C22.9949 5.3026 22.6279 5.66968 22.6279 6.12267C22.6279 6.29254 22.6786 6.44679 22.7665 6.57761C22.4463 8.21774 21.8351 9.77781 20.9506 11.2051V6.29644C21.1225 6.1461 21.2318 5.92546 21.2318 5.67944C21.2318 5.2245 20.8647 4.85742 20.4098 4.85742C19.9568 4.85742 19.5897 5.2245 19.5897 5.67944C19.5897 5.93717 19.7088 6.16757 19.8943 6.31792V13.2748C18.9356 12.6168 17.9203 12.072 16.8601 11.6464C16.8562 11.2266 16.7956 10.8185 16.6843 10.4261C18.0355 9.60209 18.838 8.10254 18.7911 6.5327C18.8927 6.39602 18.9532 6.2281 18.9532 6.04456C18.9532 5.58962 18.5861 5.22255 18.1331 5.22255C17.6782 5.22255 17.3111 5.58962 17.3111 6.04456C17.3111 6.35697 17.4849 6.62642 17.7387 6.76505C17.7075 7.82918 17.1666 8.82693 16.2821 9.43222C15.9599 8.83864 15.5128 8.32122 14.9759 7.91119C14.9563 7.47382 14.599 7.12627 14.1578 7.12627C13.7028 7.12627 13.3357 7.49335 13.3357 7.94829C13.3357 8.40128 13.7028 8.76835 14.1578 8.76835C14.2202 8.76835 14.2788 8.7625 14.3354 8.74883C15.1223 9.3463 15.6573 10.2484 15.7784 11.2578C14.6225 10.8908 13.4216 10.6584 12.1876 10.5627C12.0432 10.3245 11.7835 10.1625 11.4847 10.1625C11.0298 10.1625 10.6627 10.5295 10.6627 10.9825C10.6627 11.4375 11.0298 11.8045 11.4847 11.8045C11.6858 11.8045 11.8713 11.7304 12.0139 11.6093C12.3009 11.6288 12.586 11.6562 12.8671 11.6913C12.3966 12.2263 11.7737 12.5895 11.0962 12.7437C10.9458 12.566 10.7213 12.4528 10.4694 12.4528C10.0145 12.4528 9.6474 12.8199 9.6474 13.2729C9.6474 13.7258 10.0145 14.0949 10.4694 14.0949C10.7115 14.0949 10.9283 13.9875 11.0786 13.8215C12.2618 13.6224 13.3494 12.9448 14.0367 11.8885C15.5402 12.2048 16.9772 12.7554 18.3128 13.5247C17.7231 13.6731 17.1119 13.7512 16.491 13.7512V14.8056C17.5181 14.8056 18.5178 14.624 19.4706 14.2667C19.6131 14.3682 19.7537 14.4698 19.8924 14.5752V17.2834C20.402 16.6644 20.9018 16.0337 21.4466 15.4226C21.2826 15.5046 21.1166 15.5827 20.9467 15.655V13.0561C21.9269 11.787 22.6864 10.3948 23.2136 8.92065C23.8462 8.91284 24.4515 8.6922 24.9455 8.28217C25.1525 8.1084 25.3321 7.90924 25.4766 7.69251C25.8749 7.62807 26.1756 7.29028 26.1756 6.88025ZM24.0864 11.2578C24.0864 10.84 23.7506 10.5042 23.3327 10.5042C22.9149 10.5042 22.579 10.84 22.579 11.2578C22.579 11.4414 22.6435 11.6093 22.7528 11.7401C22.7723 12.4586 22.8817 13.1655 23.0769 13.8489C23.362 13.6185 23.6666 13.3939 23.9946 13.183C23.8931 12.7437 23.8326 12.2966 23.8111 11.8416C23.979 11.703 24.0864 11.4921 24.0864 11.2578ZM17.2994 15.8912C16.8815 15.8912 16.5438 16.227 16.5438 16.6449C16.5438 17.0627 16.8815 17.3986 17.2994 17.3986C17.4165 17.3986 17.5278 17.3712 17.6274 17.3224C18.1448 17.5704 18.631 17.875 19.0762 18.2362C19.3125 17.9726 19.5409 17.7071 19.7654 17.4357C19.2187 16.9905 18.6193 16.6195 17.9789 16.3247C17.8598 16.0689 17.6001 15.8912 17.2994 15.8912ZM15.3117 18.0175C15.5675 17.832 15.7764 17.586 15.9248 17.2951C16.163 16.8167 16.204 16.2759 16.0341 15.7701L15.0344 16.1001C15.1125 16.3403 15.093 16.5961 14.9798 16.8226C14.9095 16.9632 14.806 17.0823 14.683 17.1701C14.0562 16.0572 13.943 14.6709 14.5073 13.4173L13.5447 12.9858C12.6816 14.9149 13.0897 17.094 14.4057 18.5857C13.1502 18.2108 11.9943 17.5099 11.0727 16.5258C11.0747 16.5043 11.0767 16.4828 11.0767 16.4613C11.0767 16.4594 11.0767 16.4594 11.0767 16.4594C11.0767 16.0689 10.8033 15.7428 10.4382 15.6608C10.3796 15.6491 10.3191 15.6413 10.2566 15.6413C10.2332 15.6413 10.2097 15.6432 10.1863 15.6452C9.7665 15.6803 9.43457 16.0318 9.43457 16.4613C9.43457 16.9163 9.8036 17.2834 10.2566 17.2834C10.2605 17.2834 10.2683 17.2834 10.2722 17.2814C10.2917 17.2814 10.3132 17.2795 10.3308 17.2775C11.3422 18.3553 12.6231 19.1539 14.0777 19.5913C14.8939 19.8373 15.7276 19.9603 16.5555 19.9603C16.7839 19.9603 17.0143 19.9505 17.2428 19.931C17.8168 19.5093 18.3167 19.0465 18.7794 18.5584C18.0472 18.7868 17.2955 18.9001 16.5516 18.9001C16.0712 18.6775 15.6573 18.3748 15.3117 18.0175Z" fill="#C89211"/>
<path d="M29.1241 16.7074C29.7294 16.7074 30.3307 16.6058 30.9028 16.4106C31.0298 16.4906 31.1801 16.5395 31.3422 16.5395C31.7951 16.5395 32.1622 16.1724 32.1622 15.7194C32.1622 15.2645 31.7951 14.8974 31.3422 14.8974C31.0005 14.8974 30.7076 15.1063 30.5826 15.405C30.1511 15.5554 29.6981 15.6413 29.2373 15.653C29.6122 15.1824 29.9559 14.6845 30.2644 14.1613C30.321 14.0656 30.3757 13.966 30.4303 13.8664C30.4479 13.8645 30.4655 13.8625 30.483 13.8606C30.8696 13.7922 31.1625 13.4564 31.1625 13.0522C31.1625 12.5992 30.7935 12.2322 30.3405 12.2322C30.2468 12.2322 30.1531 12.2497 30.0672 12.281C30.0261 12.2946 29.9832 12.3122 29.9441 12.3356C29.6923 12.4743 29.5185 12.7437 29.5185 13.0542C29.5185 13.0991 29.5224 13.144 29.5302 13.187C29.5341 13.2123 29.5419 13.2397 29.5478 13.2651C29.4423 13.4603 29.333 13.6536 29.2158 13.843C29.0265 13.0229 29.1163 12.1541 29.4755 11.3887H29.4872C29.5478 11.3887 29.6064 11.3828 29.663 11.3691C29.1768 11.4023 28.7199 11.459 28.2903 11.5312C27.9408 12.6344 27.9955 13.843 28.468 14.9189C27.5581 16.0884 26.4276 17.092 25.1175 17.8633C24.602 17.9199 24.0963 18.0097 23.5945 18.1327C23.6804 18.0058 23.7858 17.8906 23.9069 17.791C24.2584 17.4982 24.7035 17.3595 25.1585 17.4025L25.2541 16.354C24.52 16.2856 23.7995 16.5082 23.2313 16.9827C22.7471 17.3849 22.423 17.9258 22.2961 18.531C21.8353 18.7009 21.3842 18.8981 20.9469 19.1227V16.7972C22.2804 16.272 23.5125 15.53 24.604 14.5889C24.93 14.3097 25.2366 14.0148 25.5295 13.7083C25.9903 13.8176 26.4569 13.8742 26.9314 13.8742C27.0681 13.8742 27.2067 13.8703 27.3473 13.8606L27.275 12.8082C26.9587 12.8296 26.6424 12.8218 26.3319 12.7828C26.578 12.4704 26.8084 12.1482 27.0212 11.8143C26.3105 12.0135 25.7052 12.2595 25.1897 12.5075C24.8558 12.8999 24.4946 13.2729 24.1041 13.6224C24.0611 13.4759 24.0221 13.3314 23.9889 13.183C23.6628 13.3939 23.3563 13.6165 23.0712 13.8489C23.12 14.0129 23.1708 14.1769 23.2274 14.337C22.6651 14.7529 22.0696 15.1161 21.4428 15.4226C20.898 16.0338 20.3982 16.6644 19.8886 17.2834V17.5411C19.8476 17.506 19.8046 17.4708 19.7617 17.4376C19.5371 17.7071 19.3087 17.9746 19.0724 18.2382C19.1369 18.287 19.1974 18.3397 19.2579 18.3924C19.0958 18.4549 18.9338 18.5115 18.7717 18.5623C18.309 19.0485 17.8091 19.5132 17.2351 19.9349C18.1411 19.8627 19.0353 19.6401 19.8886 19.275V21.9988H15.718V25.4098C15.1322 25.6168 14.7104 26.1733 14.7104 26.8274C14.7104 27.6572 15.3841 28.3308 16.2159 28.3308C17.0457 28.3308 17.7193 27.6572 17.7193 26.8274C17.7193 26.1948 17.3249 25.6519 16.7723 25.4313V23.0512H19.8964V26.4681C19.3165 26.677 18.9006 27.2316 18.9006 27.8837C18.9006 28.7135 19.5742 29.3871 20.404 29.3871C21.2358 29.3871 21.9095 28.7135 21.9095 27.8837C21.9095 27.2472 21.5111 26.7044 20.9527 26.4837V23.0512H24.0768V25.4313C23.5222 25.6539 23.1278 26.1948 23.1278 26.8274C23.1278 27.6572 23.8015 28.3308 24.6332 28.3308C25.4631 28.3308 26.1367 27.6572 26.1367 26.8274C26.1367 26.1733 25.7149 25.6149 25.1311 25.4098V21.9988H20.9508V20.3254C23.7819 18.6853 27.1793 18.4295 30.1843 19.4995C30.2839 19.8412 30.5982 20.0892 30.9692 20.0892C31.4242 20.0892 31.7912 19.7221 31.7912 19.2672C31.7912 18.8142 31.4242 18.4471 30.9692 18.4471C30.8443 18.4471 30.7252 18.4744 30.6197 18.5252C29.4892 18.1093 28.2982 17.8633 27.0739 17.8047C27.5269 17.4493 27.9526 17.0647 28.3548 16.6566C28.6086 16.6879 28.8663 16.7074 29.1241 16.7074ZM17.1726 26.8235C17.1726 27.3526 16.743 27.7822 16.2139 27.7822C15.6848 27.7822 15.2552 27.3507 15.2552 26.8235C15.2552 26.2943 15.6848 25.8648 16.2139 25.8648C16.743 25.8648 17.1726 26.2963 17.1726 26.8235ZM21.3608 27.8817C21.3608 28.4109 20.9312 28.8404 20.4021 28.8404C19.873 28.8404 19.4434 28.4089 19.4434 27.8817C19.4434 27.3975 19.8027 26.9992 20.2674 26.9328H20.5349C21.0015 26.9972 21.3608 27.3975 21.3608 27.8817ZM25.588 26.8235C25.588 27.3526 25.1585 27.7822 24.6293 27.7822C24.1002 27.7822 23.6706 27.3507 23.6706 26.8235C23.6706 26.2943 24.1002 25.8648 24.6293 25.8648C25.1585 25.8648 25.588 26.2963 25.588 26.8235Z" fill="#00783F"/>
</svg>
